# xmcd CD database file
#
# Track frame offsets:
#	150
#	12638
#	24301
#	41101
#	51545
#	62645
#	76236
#	94161
#	103546
#	119784
#	129197
#	142210
#	151585
#	161560
#	176073
#
# Disc length: 2586 seconds
#
# Revision: 0
# Processed by: cddbd v1.5.2PL0 Copyright (c) Steve Scherf et al.
# Submitted via: CDex 1.51
#
DISCID=cc0a180f
DTITLE=The Velox Brothers - Songs for Swingin' Lounges!
DYEAR=2006
DGENRE=Jazz
TTITLE0=Five Guys Named Moe
TTITLE1=Just You Just Me
TTITLE2='Deed I Do
TTITLE3=Straighten Up And Fly Right
TTITLE4=It Had To Be You
TTITLE5=Let's Get Away From It All
TTITLE6=I'm Walking
TTITLE7=You'd Be So Nice To Come Home To
TTITLE8=Is You Or Is You Ain't My Baby?
TTITLE9=Jack You're Dead
TTITLE10=Choo Choo Ch'boogie
TTITLE11=Chartreuse
TTITLE12=Orange Coloured Sky
TTITLE13=Gee Baby - Aiin't I Good To You?
TTITLE14=Room With A View
EXTD=YEAR: 2006
EXTT0=
EXTT1=
EXTT2=
EXTT3=
EXTT4=
EXTT5=
EXTT6=
EXTT7=
EXTT8=
EXTT9=
EXTT10=
EXTT11=
EXTT12=
EXTT13=
EXTT14=
PLAYORDER=
